<?xml version="1.0" standalone="no"?>
<!DOCTYPE svg PUBLIC "-//W3C//DTD SVG 20010904//EN"
 "http://www.w3.org/TR/2001/REC-SVG-20010904/DTD/svg10.dtd">
<svg version="1.0" xmlns="http://www.w3.org/2000/svg"
 width="1183.000000pt" height="1183.000000pt" viewBox="0 0 1183.000000 1183.000000"
 preserveAspectRatio="xMidYMid meet">
<metadata>
Created by potrace 1.14, written by Peter Selinger 2001-2017
</metadata>
<g transform="translate(0.000000,1183.000000) scale(0.100000,-0.100000)"
fill="#000000" stroke="none">
<path d="M5620 11810 c-1856 -100 -3530 -1039 -4581 -2570 -202 -294 -412
-677 -552 -1006 -632 -1483 -631 -3156 0 -4639 77 -180 225 -473 328 -651 727
-1242 1876 -2175 3239 -2629 1460 -486 3064 -382 4442 289 588 287 1084 635
1551 1089 887 863 1486 1999 1693 3212 236 1379 -17 2786 -715 3980 -907 1553
-2479 2615 -4247 2870 -357 51 -822 73 -1158 55z m-1810 -2760 c528 -32 992
-121 1388 -267 231 -85 505 -234 654 -356 32 -26 62 -47 68 -47 6 0 36 21 68
47 246 201 630 374 1075 483 410 101 863 150 1394 150 l273 0 0 -2535 0 -2535
-237 0 c-825 0 -1517 -135 -1963 -383 l-75 -42 235 -3 c129 -1 663 -1 1185 0
l950 3 56 26 c69 33 129 91 166 161 l28 53 5 2130 5 2130 29 53 c66 118 202
164 322 108 58 -27 120 -94 135 -146 7 -23 9 -738 7 -2190 l-3 -2155 -33 -95
c-99 -285 -306 -475 -603 -557 -60 -17 -228 -18 -3019 -18 -2728 0 -2960 1
-3015 17 -196 54 -342 145 -454 284 -77 95 -113 160 -153 274 l-33 95 -3 2155
c-2 1552 0 2166 8 2193 25 85 138 167 231 167 97 0 178 -48 225 -132 l29 -53
5 -2130 5 -2130 28 -53 c37 -70 97 -128 166 -161 l56 -26 1185 -2 c1078 -2
1183 -1 1165 13 -11 9 -74 42 -140 74 -465 225 -1099 340 -1877 340 l-238 0 0
2535 0 2535 268 0 c147 0 341 -5 432 -10z"/>
<path d="M3610 6526 l0 -2034 83 -6 c421 -29 595 -48 828 -91 419 -78 830
-219 1078 -369 32 -20 61 -36 65 -36 3 0 6 884 6 1964 l0 1964 -57 52 c-128
114 -322 229 -531 315 -375 152 -780 231 -1384 270 l-88 5 0 -2034z"/>
<path d="M8120 8553 c-862 -47 -1542 -259 -1907 -596 l-43 -40 0 -1963 c0
-1080 3 -1964 6 -1964 4 0 33 16 65 36 197 119 530 245 859 323 238 57 608
110 875 126 55 3 135 8 178 11 l77 6 0 2034 0 2034 -27 -2 c-16 -1 -53 -3 -83
-5z"/>
</g>
</svg>
